<mxfile host="app.diagrams.net" agent="Mozilla/5.0 (Windows NT 10.0; Win64; x64) AppleWebKit/537.36 (KHTML, like Gecko) Chrome/129.0.0.0 Safari/537.36" version="24.7.16">
  <diagram name="Page-1" id="mEnxhYJRBr707etjH8iz">
    <mxGraphModel dx="2049" dy="1080" grid="1" gridSize="10" guides="1" tooltips="1" connect="1" arrows="1" fold="1" page="1" pageScale="1" pageWidth="827" pageHeight="583" math="0" shadow="0">
      <root>
        <mxCell id="0" />
        <mxCell id="1" parent="0" />
        <mxCell id="kZWz88Dznm6kHi2JJiY8-70" value="" style="rounded=0;whiteSpace=wrap;html=1;movable=0;resizable=0;rotatable=0;deletable=0;editable=0;locked=1;connectable=0;" vertex="1" parent="1">
          <mxGeometry x="190" y="130" width="1210" height="840" as="geometry" />
        </mxCell>
        <mxCell id="kZWz88Dznm6kHi2JJiY8-41" value="" style="rounded=1;whiteSpace=wrap;html=1;fillColor=#d5e8d4;strokeColor=#82b366;" vertex="1" parent="1">
          <mxGeometry x="897" y="510" width="433" height="400" as="geometry" />
        </mxCell>
        <mxCell id="kZWz88Dznm6kHi2JJiY8-4" value="" style="group" vertex="1" connectable="0" parent="1">
          <mxGeometry x="520" y="680" width="90" height="108" as="geometry" />
        </mxCell>
        <mxCell id="kZWz88Dznm6kHi2JJiY8-2" value="" style="sketch=0;points=[[0,0,0],[0.25,0,0],[0.5,0,0],[0.75,0,0],[1,0,0],[0,1,0],[0.25,1,0],[0.5,1,0],[0.75,1,0],[1,1,0],[0,0.25,0],[0,0.5,0],[0,0.75,0],[1,0.25,0],[1,0.5,0],[1,0.75,0]];outlineConnect=0;fontColor=#232F3E;fillColor=#8C4FFF;strokeColor=#ffffff;dashed=0;verticalLabelPosition=bottom;verticalAlign=top;align=center;html=1;fontSize=12;fontStyle=0;aspect=fixed;shape=mxgraph.aws4.resourceIcon;resIcon=mxgraph.aws4.api_gateway;" vertex="1" parent="kZWz88Dznm6kHi2JJiY8-4">
          <mxGeometry x="6" width="78" height="78" as="geometry" />
        </mxCell>
        <mxCell id="kZWz88Dznm6kHi2JJiY8-3" value="API Gateway" style="text;html=1;align=center;verticalAlign=middle;resizable=0;points=[];autosize=1;strokeColor=none;fillColor=none;" vertex="1" parent="kZWz88Dznm6kHi2JJiY8-4">
          <mxGeometry y="78" width="90" height="30" as="geometry" />
        </mxCell>
        <mxCell id="kZWz88Dznm6kHi2JJiY8-7" value="" style="group" vertex="1" connectable="0" parent="1">
          <mxGeometry x="980" y="680" width="100" height="108" as="geometry" />
        </mxCell>
        <mxCell id="kZWz88Dznm6kHi2JJiY8-5" value="" style="sketch=0;points=[[0,0,0],[0.25,0,0],[0.5,0,0],[0.75,0,0],[1,0,0],[0,1,0],[0.25,1,0],[0.5,1,0],[0.75,1,0],[1,1,0],[0,0.25,0],[0,0.5,0],[0,0.75,0],[1,0.25,0],[1,0.5,0],[1,0.75,0]];outlineConnect=0;fontColor=#232F3E;fillColor=#8C4FFF;strokeColor=#ffffff;dashed=0;verticalLabelPosition=bottom;verticalAlign=top;align=center;html=1;fontSize=12;fontStyle=0;aspect=fixed;shape=mxgraph.aws4.resourceIcon;resIcon=mxgraph.aws4.elastic_load_balancing;" vertex="1" parent="kZWz88Dznm6kHi2JJiY8-7">
          <mxGeometry x="11" width="78" height="78" as="geometry" />
        </mxCell>
        <mxCell id="kZWz88Dznm6kHi2JJiY8-6" value="Load Balancer" style="text;html=1;align=center;verticalAlign=middle;resizable=0;points=[];autosize=1;strokeColor=none;fillColor=none;" vertex="1" parent="kZWz88Dznm6kHi2JJiY8-7">
          <mxGeometry y="78" width="100" height="30" as="geometry" />
        </mxCell>
        <mxCell id="kZWz88Dznm6kHi2JJiY8-10" value="" style="group" vertex="1" connectable="0" parent="1">
          <mxGeometry x="807" y="680" width="90" height="118" as="geometry" />
        </mxCell>
        <mxCell id="kZWz88Dznm6kHi2JJiY8-8" value="" style="sketch=0;points=[[0,0,0],[0.25,0,0],[0.5,0,0],[0.75,0,0],[1,0,0],[0,1,0],[0.25,1,0],[0.5,1,0],[0.75,1,0],[1,1,0],[0,0.25,0],[0,0.5,0],[0,0.75,0],[1,0.25,0],[1,0.5,0],[1,0.75,0]];outlineConnect=0;fontColor=#232F3E;fillColor=#8C4FFF;strokeColor=#ffffff;dashed=0;verticalLabelPosition=bottom;verticalAlign=top;align=center;html=1;fontSize=12;fontStyle=0;aspect=fixed;shape=mxgraph.aws4.resourceIcon;resIcon=mxgraph.aws4.vpc_privatelink;" vertex="1" parent="kZWz88Dznm6kHi2JJiY8-10">
          <mxGeometry x="6" width="78" height="78" as="geometry" />
        </mxCell>
        <mxCell id="kZWz88Dznm6kHi2JJiY8-9" value="VPC&amp;nbsp;&lt;div&gt;Private Link&lt;/div&gt;" style="text;html=1;align=center;verticalAlign=middle;resizable=0;points=[];autosize=1;strokeColor=none;fillColor=none;" vertex="1" parent="kZWz88Dznm6kHi2JJiY8-10">
          <mxGeometry y="78" width="90" height="40" as="geometry" />
        </mxCell>
        <mxCell id="kZWz88Dznm6kHi2JJiY8-13" value="" style="group" vertex="1" connectable="0" parent="1">
          <mxGeometry x="1190" y="472" width="78" height="108" as="geometry" />
        </mxCell>
        <mxCell id="kZWz88Dznm6kHi2JJiY8-11" value="" style="sketch=0;points=[[0,0,0],[0.25,0,0],[0.5,0,0],[0.75,0,0],[1,0,0],[0,1,0],[0.25,1,0],[0.5,1,0],[0.75,1,0],[1,1,0],[0,0.25,0],[0,0.5,0],[0,0.75,0],[1,0.25,0],[1,0.5,0],[1,0.75,0]];outlineConnect=0;fontColor=#232F3E;fillColor=#8C4FFF;strokeColor=#ffffff;dashed=0;verticalLabelPosition=bottom;verticalAlign=top;align=center;html=1;fontSize=12;fontStyle=0;aspect=fixed;shape=mxgraph.aws4.resourceIcon;resIcon=mxgraph.aws4.vpc;" vertex="1" parent="kZWz88Dznm6kHi2JJiY8-13">
          <mxGeometry width="78" height="78" as="geometry" />
        </mxCell>
        <mxCell id="kZWz88Dznm6kHi2JJiY8-12" value="VPC" style="text;html=1;align=center;verticalAlign=middle;resizable=0;points=[];autosize=1;strokeColor=none;fillColor=none;" vertex="1" parent="kZWz88Dznm6kHi2JJiY8-13">
          <mxGeometry x="14" y="78" width="50" height="30" as="geometry" />
        </mxCell>
        <mxCell id="kZWz88Dznm6kHi2JJiY8-30" value="" style="group" vertex="1" connectable="0" parent="1">
          <mxGeometry x="750" y="350" width="78" height="108" as="geometry" />
        </mxCell>
        <mxCell id="kZWz88Dznm6kHi2JJiY8-26" value="" style="sketch=0;points=[[0,0,0],[0.25,0,0],[0.5,0,0],[0.75,0,0],[1,0,0],[0,1,0],[0.25,1,0],[0.5,1,0],[0.75,1,0],[1,1,0],[0,0.25,0],[0,0.5,0],[0,0.75,0],[1,0.25,0],[1,0.5,0],[1,0.75,0]];outlineConnect=0;fontColor=#232F3E;fillColor=#DD344C;strokeColor=#ffffff;dashed=0;verticalLabelPosition=bottom;verticalAlign=top;align=center;html=1;fontSize=12;fontStyle=0;aspect=fixed;shape=mxgraph.aws4.resourceIcon;resIcon=mxgraph.aws4.cognito;" vertex="1" parent="kZWz88Dznm6kHi2JJiY8-30">
          <mxGeometry width="78" height="78" as="geometry" />
        </mxCell>
        <mxCell id="kZWz88Dznm6kHi2JJiY8-29" value="Cognito" style="text;html=1;align=center;verticalAlign=middle;resizable=0;points=[];autosize=1;strokeColor=none;fillColor=none;" vertex="1" parent="kZWz88Dznm6kHi2JJiY8-30">
          <mxGeometry x="9" y="78" width="60" height="30" as="geometry" />
        </mxCell>
        <mxCell id="kZWz88Dznm6kHi2JJiY8-42" style="edgeStyle=orthogonalEdgeStyle;rounded=0;orthogonalLoop=1;jettySize=auto;html=1;" edge="1" parent="1" source="kZWz88Dznm6kHi2JJiY8-31" target="kZWz88Dznm6kHi2JJiY8-2">
          <mxGeometry relative="1" as="geometry">
            <Array as="points">
              <mxPoint x="460" y="726" />
              <mxPoint x="460" y="726" />
            </Array>
          </mxGeometry>
        </mxCell>
        <mxCell id="kZWz88Dznm6kHi2JJiY8-31" value="Devices" style="sketch=0;outlineConnect=0;gradientColor=none;fontColor=#545B64;strokeColor=none;fillColor=#879196;dashed=0;verticalLabelPosition=bottom;verticalAlign=top;align=center;html=1;fontSize=12;fontStyle=0;aspect=fixed;shape=mxgraph.aws4.illustration_devices;pointerEvents=1" vertex="1" parent="1">
          <mxGeometry x="280" y="690" width="100" height="73" as="geometry" />
        </mxCell>
        <mxCell id="kZWz88Dznm6kHi2JJiY8-39" value="" style="group" vertex="1" connectable="0" parent="1">
          <mxGeometry x="505" y="310" width="140" height="170" as="geometry" />
        </mxCell>
        <mxCell id="kZWz88Dznm6kHi2JJiY8-34" value="" style="group" vertex="1" connectable="0" parent="kZWz88Dznm6kHi2JJiY8-39">
          <mxGeometry width="140" height="170" as="geometry" />
        </mxCell>
        <mxCell id="kZWz88Dznm6kHi2JJiY8-38" value="" style="rounded=1;whiteSpace=wrap;html=1;" vertex="1" parent="kZWz88Dznm6kHi2JJiY8-34">
          <mxGeometry x="-20" y="-15" width="160" height="185" as="geometry" />
        </mxCell>
        <mxCell id="kZWz88Dznm6kHi2JJiY8-15" value="&lt;font style=&quot;font-size: 10px;&quot;&gt;Sign-In &lt;br&gt;Function&lt;/font&gt;" style="text;html=1;align=center;verticalAlign=middle;resizable=0;points=[];autosize=1;strokeColor=none;fillColor=none;" vertex="1" parent="kZWz88Dznm6kHi2JJiY8-34">
          <mxGeometry y="45" width="60" height="40" as="geometry" />
        </mxCell>
        <mxCell id="kZWz88Dznm6kHi2JJiY8-32" value="" style="sketch=0;points=[[0,0,0],[0.25,0,0],[0.5,0,0],[0.75,0,0],[1,0,0],[0,1,0],[0.25,1,0],[0.5,1,0],[0.75,1,0],[1,1,0],[0,0.25,0],[0,0.5,0],[0,0.75,0],[1,0.25,0],[1,0.5,0],[1,0.75,0]];outlineConnect=0;fontColor=#232F3E;fillColor=#ED7100;strokeColor=#ffffff;dashed=0;verticalLabelPosition=bottom;verticalAlign=top;align=center;html=1;fontSize=12;fontStyle=0;aspect=fixed;shape=mxgraph.aws4.resourceIcon;resIcon=mxgraph.aws4.lambda;" vertex="1" parent="kZWz88Dznm6kHi2JJiY8-34">
          <mxGeometry x="5" width="50" height="50" as="geometry" />
        </mxCell>
        <mxCell id="kZWz88Dznm6kHi2JJiY8-35" value="" style="group" vertex="1" connectable="0" parent="kZWz88Dznm6kHi2JJiY8-39">
          <mxGeometry x="60" width="60" height="85" as="geometry" />
        </mxCell>
        <mxCell id="kZWz88Dznm6kHi2JJiY8-17" value="" style="sketch=0;points=[[0,0,0],[0.25,0,0],[0.5,0,0],[0.75,0,0],[1,0,0],[0,1,0],[0.25,1,0],[0.5,1,0],[0.75,1,0],[1,1,0],[0,0.25,0],[0,0.5,0],[0,0.75,0],[1,0.25,0],[1,0.5,0],[1,0.75,0]];outlineConnect=0;fontColor=#232F3E;fillColor=#ED7100;strokeColor=#ffffff;dashed=0;verticalLabelPosition=bottom;verticalAlign=top;align=center;html=1;fontSize=12;fontStyle=0;aspect=fixed;shape=mxgraph.aws4.resourceIcon;resIcon=mxgraph.aws4.lambda;" vertex="1" parent="kZWz88Dznm6kHi2JJiY8-35">
          <mxGeometry x="5" width="50" height="50" as="geometry" />
        </mxCell>
        <mxCell id="kZWz88Dznm6kHi2JJiY8-18" value="&lt;font style=&quot;font-size: 10px;&quot;&gt;Sign-Up&lt;/font&gt;&lt;div style=&quot;font-size: 10px;&quot;&gt;&lt;font style=&quot;font-size: 10px;&quot;&gt;Function&lt;/font&gt;&lt;/div&gt;" style="text;html=1;align=center;verticalAlign=middle;resizable=0;points=[];autosize=1;strokeColor=none;fillColor=none;" vertex="1" parent="kZWz88Dznm6kHi2JJiY8-35">
          <mxGeometry y="45" width="60" height="40" as="geometry" />
        </mxCell>
        <mxCell id="kZWz88Dznm6kHi2JJiY8-37" value="" style="group" vertex="1" connectable="0" parent="kZWz88Dznm6kHi2JJiY8-39">
          <mxGeometry x="30" y="85" width="60" height="85" as="geometry" />
        </mxCell>
        <mxCell id="kZWz88Dznm6kHi2JJiY8-21" value="&lt;font style=&quot;font-size: 10px;&quot;&gt;Get-User&lt;/font&gt;&lt;div style=&quot;font-size: 10px;&quot;&gt;&lt;font style=&quot;font-size: 10px;&quot;&gt;Function&lt;/font&gt;&lt;/div&gt;" style="text;html=1;align=center;verticalAlign=middle;resizable=0;points=[];autosize=1;strokeColor=none;fillColor=none;" vertex="1" parent="kZWz88Dznm6kHi2JJiY8-37">
          <mxGeometry y="45" width="60" height="40" as="geometry" />
        </mxCell>
        <mxCell id="kZWz88Dznm6kHi2JJiY8-33" value="" style="sketch=0;points=[[0,0,0],[0.25,0,0],[0.5,0,0],[0.75,0,0],[1,0,0],[0,1,0],[0.25,1,0],[0.5,1,0],[0.75,1,0],[1,1,0],[0,0.25,0],[0,0.5,0],[0,0.75,0],[1,0.25,0],[1,0.5,0],[1,0.75,0]];outlineConnect=0;fontColor=#232F3E;fillColor=#ED7100;strokeColor=#ffffff;dashed=0;verticalLabelPosition=bottom;verticalAlign=top;align=center;html=1;fontSize=12;fontStyle=0;aspect=fixed;shape=mxgraph.aws4.resourceIcon;resIcon=mxgraph.aws4.lambda;" vertex="1" parent="kZWz88Dznm6kHi2JJiY8-37">
          <mxGeometry x="5" width="50" height="50" as="geometry" />
        </mxCell>
        <mxCell id="kZWz88Dznm6kHi2JJiY8-43" style="edgeStyle=orthogonalEdgeStyle;rounded=0;orthogonalLoop=1;jettySize=auto;html=1;entryX=0.5;entryY=1.083;entryDx=0;entryDy=0;entryPerimeter=0;" edge="1" parent="1" source="kZWz88Dznm6kHi2JJiY8-2" target="kZWz88Dznm6kHi2JJiY8-21">
          <mxGeometry relative="1" as="geometry" />
        </mxCell>
        <mxCell id="kZWz88Dznm6kHi2JJiY8-44" style="edgeStyle=orthogonalEdgeStyle;rounded=0;orthogonalLoop=1;jettySize=auto;html=1;" edge="1" parent="1" source="kZWz88Dznm6kHi2JJiY8-38" target="kZWz88Dznm6kHi2JJiY8-26">
          <mxGeometry relative="1" as="geometry">
            <Array as="points">
              <mxPoint x="680" y="388" />
              <mxPoint x="680" y="388" />
            </Array>
          </mxGeometry>
        </mxCell>
        <mxCell id="kZWz88Dznm6kHi2JJiY8-45" style="edgeStyle=orthogonalEdgeStyle;rounded=0;orthogonalLoop=1;jettySize=auto;html=1;entryX=0;entryY=0.5;entryDx=0;entryDy=0;entryPerimeter=0;" edge="1" parent="1" source="kZWz88Dznm6kHi2JJiY8-2" target="kZWz88Dznm6kHi2JJiY8-8">
          <mxGeometry relative="1" as="geometry" />
        </mxCell>
        <mxCell id="kZWz88Dznm6kHi2JJiY8-46" style="edgeStyle=orthogonalEdgeStyle;rounded=0;orthogonalLoop=1;jettySize=auto;html=1;" edge="1" parent="1" source="kZWz88Dznm6kHi2JJiY8-8" target="kZWz88Dznm6kHi2JJiY8-5">
          <mxGeometry relative="1" as="geometry" />
        </mxCell>
        <mxCell id="kZWz88Dznm6kHi2JJiY8-47" value="" style="group" vertex="1" connectable="0" parent="1">
          <mxGeometry x="1190" y="680" width="78" height="108" as="geometry" />
        </mxCell>
        <mxCell id="kZWz88Dznm6kHi2JJiY8-23" value="" style="sketch=0;points=[[0,0,0],[0.25,0,0],[0.5,0,0],[0.75,0,0],[1,0,0],[0,1,0],[0.25,1,0],[0.5,1,0],[0.75,1,0],[1,1,0],[0,0.25,0],[0,0.5,0],[0,0.75,0],[1,0.25,0],[1,0.5,0],[1,0.75,0]];outlineConnect=0;fontColor=#232F3E;fillColor=#ED7100;strokeColor=#ffffff;dashed=0;verticalLabelPosition=bottom;verticalAlign=top;align=center;html=1;fontSize=12;fontStyle=0;aspect=fixed;shape=mxgraph.aws4.resourceIcon;resIcon=mxgraph.aws4.eks;" vertex="1" parent="kZWz88Dznm6kHi2JJiY8-47">
          <mxGeometry width="78" height="78" as="geometry" />
        </mxCell>
        <mxCell id="kZWz88Dznm6kHi2JJiY8-24" value="EKS" style="text;html=1;align=center;verticalAlign=middle;resizable=0;points=[];autosize=1;strokeColor=none;fillColor=none;" vertex="1" parent="kZWz88Dznm6kHi2JJiY8-47">
          <mxGeometry x="14" y="78" width="50" height="30" as="geometry" />
        </mxCell>
        <mxCell id="kZWz88Dznm6kHi2JJiY8-48" style="edgeStyle=orthogonalEdgeStyle;rounded=0;orthogonalLoop=1;jettySize=auto;html=1;" edge="1" parent="1" source="kZWz88Dznm6kHi2JJiY8-5" target="kZWz88Dznm6kHi2JJiY8-23">
          <mxGeometry relative="1" as="geometry" />
        </mxCell>
        <mxCell id="kZWz88Dznm6kHi2JJiY8-50" style="edgeStyle=orthogonalEdgeStyle;rounded=0;orthogonalLoop=1;jettySize=auto;html=1;endArrow=none;endFill=0;dashed=1;dashPattern=8 8;" edge="1" parent="1" source="kZWz88Dznm6kHi2JJiY8-49">
          <mxGeometry relative="1" as="geometry">
            <mxPoint x="700" y="390" as="targetPoint" />
          </mxGeometry>
        </mxCell>
        <mxCell id="kZWz88Dznm6kHi2JJiY8-49" value="Autentica / Autoriza usuários" style="whiteSpace=wrap;html=1;shape=mxgraph.basic.document;fillColor=#fff2cc;strokeColor=#d6b656;" vertex="1" parent="1">
          <mxGeometry x="650" y="180" width="100" height="100" as="geometry" />
        </mxCell>
        <mxCell id="kZWz88Dznm6kHi2JJiY8-52" style="edgeStyle=orthogonalEdgeStyle;rounded=0;orthogonalLoop=1;jettySize=auto;html=1;endArrow=none;endFill=0;dashed=1;dashPattern=8 8;" edge="1" parent="1" source="kZWz88Dznm6kHi2JJiY8-51">
          <mxGeometry relative="1" as="geometry">
            <mxPoint x="570" y="620" as="targetPoint" />
          </mxGeometry>
        </mxCell>
        <mxCell id="kZWz88Dznm6kHi2JJiY8-51" value="Autoriza requisições" style="whiteSpace=wrap;html=1;shape=mxgraph.basic.document;fillColor=#fff2cc;strokeColor=#d6b656;" vertex="1" parent="1">
          <mxGeometry x="390" y="570" width="100" height="100" as="geometry" />
        </mxCell>
        <mxCell id="kZWz88Dznm6kHi2JJiY8-54" value="1" style="ellipse;whiteSpace=wrap;html=1;fillColor=#f8cecc;strokeColor=#b85450;" vertex="1" parent="1">
          <mxGeometry x="380" y="560" width="20" height="20" as="geometry" />
        </mxCell>
        <mxCell id="kZWz88Dznm6kHi2JJiY8-57" value="2" style="ellipse;whiteSpace=wrap;html=1;fillColor=#f8cecc;strokeColor=#b85450;" vertex="1" parent="1">
          <mxGeometry x="640" y="170" width="20" height="20" as="geometry" />
        </mxCell>
        <mxCell id="kZWz88Dznm6kHi2JJiY8-59" style="edgeStyle=orthogonalEdgeStyle;rounded=0;orthogonalLoop=1;jettySize=auto;html=1;dashed=1;dashPattern=8 8;endArrow=none;endFill=0;" edge="1" parent="1" source="kZWz88Dznm6kHi2JJiY8-58">
          <mxGeometry relative="1" as="geometry">
            <mxPoint x="720" y="720" as="targetPoint" />
          </mxGeometry>
        </mxCell>
        <mxCell id="kZWz88Dznm6kHi2JJiY8-58" value="Direciona requisições" style="whiteSpace=wrap;html=1;shape=mxgraph.basic.document;fillColor=#fff2cc;strokeColor=#d6b656;" vertex="1" parent="1">
          <mxGeometry x="670" y="788" width="100" height="100" as="geometry" />
        </mxCell>
        <mxCell id="kZWz88Dznm6kHi2JJiY8-60" value="3" style="ellipse;whiteSpace=wrap;html=1;fillColor=#f8cecc;strokeColor=#b85450;" vertex="1" parent="1">
          <mxGeometry x="660" y="778" width="20" height="20" as="geometry" />
        </mxCell>
        <mxCell id="kZWz88Dznm6kHi2JJiY8-62" value=".NET" style="whiteSpace=wrap;html=1;fillColor=#dae8fc;strokeColor=#6c8ebf;" vertex="1" parent="1">
          <mxGeometry x="550" y="280" width="30" height="20" as="geometry" />
        </mxCell>
        <mxCell id="kZWz88Dznm6kHi2JJiY8-66" value="&lt;font color=&quot;#ffffff&quot;&gt;Users Pool&lt;/font&gt;" style="whiteSpace=wrap;html=1;verticalAlign=top;fillColor=#DD344C;strokeColor=#ffffff;fontColor=#232F3E;sketch=0;dashed=0;fontStyle=0;" vertex="1" parent="1">
          <mxGeometry x="910" y="340" width="120" height="30" as="geometry" />
        </mxCell>
        <mxCell id="kZWz88Dznm6kHi2JJiY8-67" value="" style="edgeStyle=orthogonalEdgeStyle;rounded=0;orthogonalLoop=1;jettySize=auto;html=1;entryX=0;entryY=0.5;entryDx=0;entryDy=0;" edge="1" parent="1" source="kZWz88Dznm6kHi2JJiY8-26" target="kZWz88Dznm6kHi2JJiY8-66">
          <mxGeometry relative="1" as="geometry" />
        </mxCell>
        <mxCell id="kZWz88Dznm6kHi2JJiY8-68" value="&lt;font color=&quot;#ffffff&quot;&gt;Management Pool&lt;/font&gt;" style="whiteSpace=wrap;html=1;verticalAlign=top;fillColor=#DD344C;strokeColor=#ffffff;fontColor=#232F3E;sketch=0;dashed=0;fontStyle=0;" vertex="1" parent="1">
          <mxGeometry x="910" y="398" width="120" height="30" as="geometry" />
        </mxCell>
        <mxCell id="kZWz88Dznm6kHi2JJiY8-69" style="edgeStyle=orthogonalEdgeStyle;rounded=0;orthogonalLoop=1;jettySize=auto;html=1;entryX=0;entryY=0.5;entryDx=0;entryDy=0;" edge="1" parent="1" source="kZWz88Dznm6kHi2JJiY8-26" target="kZWz88Dznm6kHi2JJiY8-68">
          <mxGeometry relative="1" as="geometry" />
        </mxCell>
      </root>
    </mxGraphModel>
  </diagram>
</mxfile>
